<?xml version="1.0" encoding="utf-8"?>
<!-- Generator: Adobe Illustrator 15.1.0, SVG Export Plug-In . SVG Version: 6.00 Build 0)  -->
<!DOCTYPE svg PUBLIC "-//W3C//DTD SVG 1.1//EN" "http://www.w3.org/Graphics/SVG/1.1/DTD/svg11.dtd">
<svg version="1.1" id="Layer_1" xmlns="http://www.w3.org/2000/svg" xmlns:xlink="http://www.w3.org/1999/xlink" x="0px" y="0px"
	 width="442.5px" height="549.5px" viewBox="-42.5 0 442.5 549.5" style="enable-background:new -42.5 0 442.5 549.5;"
	 xml:space="preserve">
<style type="text/css">
<![CDATA[
	.st0{fill:url(#SVGID_1_);}
	.st1{fill:url(#SVGID_2_);}
	.st2{fill:url(#SVGID_3_);}
	.st3{fill:url(#SVGID_4_);}
	.st4{fill:url(#SVGID_5_);}
	.st5{fill:url(#SVGID_6_);}
	.st6{fill:url(#SVGID_7_);}
	.st7{fill:url(#SVGID_8_);}
	.st8{fill:url(#SVGID_9_);}
	.st9{fill:url(#SVGID_10_);}
	.st10{fill:url(#SVGID_11_);}
	.st11{fill:url(#SVGID_12_);}
	.st12{fill:url(#SVGID_13_);}
	.st13{fill:url(#SVGID_14_);}
	.st14{display:none;}
]]>
</style>
<g id="template" class="st14">
	
		<image style="display:inline;overflow:visible;enable-background:new    ;" width="200" height="200" xlink:href="2B549D81.png"  transform="matrix(2 0 0 2 0 0)">
	</image>
</g>
<g>
	<g id="artwork">
		<g>
			<g>
				
					<radialGradient id="SVGID_1_" cx="406.584" cy="-376.3799" r="283.2278" gradientTransform="matrix(1 0 0 -1 -227.5 50)" gradientUnits="userSpaceOnUse">
					<stop  offset="0" style="stop-color:#6A4479"/>
					<stop  offset="1" style="stop-color:#3BB8DD"/>
				</radialGradient>
				<circle class="st0" cx="178.8" cy="226.7" r="26.5"/>
				
					<radialGradient id="SVGID_2_" cx="406.584" cy="-360.5815" r="267.916" gradientTransform="matrix(1 0 0 -1 -227.5 50)" gradientUnits="userSpaceOnUse">
					<stop  offset="0" style="stop-color:#6A4479"/>
					<stop  offset="1" style="stop-color:#3BB8DD"/>
				</radialGradient>
				<path class="st1" d="M178.8,171.7c-30.3,0-55,24.7-55,55c0,20.7,11.5,38.8,28.5,48.2v-7c-13.5-8.7-22.5-23.9-22.5-41.2
					c0-27,22-49,49-49c27,0,49,22,49,49c0,17.3-9,32.5-22.5,41.2v7c17-9.4,28.5-27.5,28.5-48.2C233.8,196.4,209.1,171.7,178.8,171.7
					z"/>
				
					<radialGradient id="SVGID_3_" cx="406.584" cy="-369.0928" r="278.466" gradientTransform="matrix(1 0 0 -1 -227.5 50)" gradientUnits="userSpaceOnUse">
					<stop  offset="0" style="stop-color:#6A4479"/>
					<stop  offset="1" style="stop-color:#3BB8DD"/>
				</radialGradient>
				<path class="st2" d="M178.8,142.8c-46.3,0-83.9,37.6-83.9,83.9c0,37,24.1,68.5,57.4,79.6V300c-30-10.9-51.4-39.6-51.4-73.3
					c0-43,35-77.9,77.9-77.9c43,0,77.9,35,77.9,77.9c0,33.7-21.5,62.4-51.4,73.3v6.3c33.3-11.1,57.4-42.6,57.4-79.6
					C262.7,180.4,225,142.8,178.8,142.8z"/>
				
					<radialGradient id="SVGID_4_" cx="406.584" cy="-372.0298" r="281.7706" gradientTransform="matrix(1 0 0 -1 -227.5 50)" gradientUnits="userSpaceOnUse">
					<stop  offset="0" style="stop-color:#6A4479"/>
					<stop  offset="1" style="stop-color:#3BB8DD"/>
				</radialGradient>
				<path class="st3" d="M178.8,113.7c-62.3,0-113,50.7-113,113c0,53.2,37,97.9,86.5,109.9v-6.2c-46.2-11.8-80.5-53.8-80.5-103.7
					c0-59,48-107,107-107s107,48,107,107c0,49.9-34.3,91.9-80.5,103.7v6.2c49.6-12,86.5-56.7,86.5-109.9
					C291.8,164.4,241.1,113.7,178.8,113.7z"/>
				
					<radialGradient id="SVGID_5_" cx="406.584" cy="-373.375" r="282.8711" gradientTransform="matrix(1 0 0 -1 -227.5 50)" gradientUnits="userSpaceOnUse">
					<stop  offset="0" style="stop-color:#6A4479"/>
					<stop  offset="1" style="stop-color:#3BB8DD"/>
				</radialGradient>
				<path class="st4" d="M178.8,85C100.6,85,37,148.6,37,226.7c0,69.1,49.7,126.8,115.2,139.3v-6.1C90,347.5,43,292.5,43,226.7
					C43,151.9,103.9,91,178.8,91c74.9,0,135.7,60.9,135.7,135.7c0,65.8-47,120.8-109.2,133.1v6.1c65.5-12.4,115.2-70.1,115.2-139.3
					C320.5,148.6,256.9,85,178.8,85z"/>
				
					<radialGradient id="SVGID_6_" cx="406.25" cy="-374.145" r="283.7191" gradientTransform="matrix(1 0 0 -1 -227.5 50)" gradientUnits="userSpaceOnUse">
					<stop  offset="0" style="stop-color:#6A4479"/>
					<stop  offset="1" style="stop-color:#3BB8DD"/>
				</radialGradient>
				<path class="st5" d="M178.8,56.1C84.7,56.1,8.1,132.6,8.1,226.7c0,85.1,62.6,155.8,144.2,168.6v-6.1
					C74,376.5,14.1,308.5,14.1,226.7c0-90.8,73.9-164.7,164.7-164.7c90.8,0,164.7,73.9,164.7,164.7c0,81.8-59.9,149.8-138.2,162.5
					v6.1c81.6-12.8,144.2-83.5,144.2-168.6C349.4,132.6,272.8,56.1,178.8,56.1z"/>
				
					<radialGradient id="SVGID_7_" cx="406.25" cy="-374.6191" r="283.7008" gradientTransform="matrix(1 0 0 -1 -227.5 50)" gradientUnits="userSpaceOnUse">
					<stop  offset="0" style="stop-color:#6A4479"/>
					<stop  offset="1" style="stop-color:#3BB8DD"/>
				</radialGradient>
				<path class="st6" d="M178.8,27C68.6,27-21,116.6-21,226.7c0,101.2,75.6,185,173.3,198v-6.1C57.9,405.7-15,324.6-15,226.7
					C-15,119.9,71.9,33,178.8,33c106.8,0,193.8,86.9,193.8,193.8c0,97.9-72.9,179-167.3,191.9v6.1c97.7-13,173.3-96.8,173.3-198
					C378.5,116.6,288.9,27,178.8,27z"/>
			</g>
			<g>
				
					<radialGradient id="SVGID_8_" cx="406.9883" cy="-175.333" r="198.9102" gradientTransform="matrix(1 0 0 -1 -227.5 50)" gradientUnits="userSpaceOnUse">
					<stop  offset="0" style="stop-color:#568EB6"/>
					<stop  offset="1" style="stop-color:#568EB6;stop-opacity:0"/>
				</radialGradient>
				<circle class="st7" cx="178.8" cy="225.8" r="26.5"/>
				
					<radialGradient id="SVGID_9_" cx="406.9883" cy="-175.333" r="198.9102" gradientTransform="matrix(1 0 0 -1 -227.5 50)" gradientUnits="userSpaceOnUse">
					<stop  offset="0" style="stop-color:#568EB6"/>
					<stop  offset="1" style="stop-color:#568EB6;stop-opacity:0"/>
				</radialGradient>
				<path class="st8" d="M178.8,425.6C68.6,425.6-21,336-21,225.8S68.6,26.1,178.8,26.1c110.1,0,199.8,89.6,199.8,199.8
					S288.9,425.6,178.8,425.6z M178.8,32.1C71.9,32.1-15,119-15,225.8s86.9,193.8,193.8,193.8s193.8-86.9,193.8-193.8
					S285.6,32.1,178.8,32.1z"/>
				
					<radialGradient id="SVGID_10_" cx="406.9883" cy="-171.9521" r="192.6993" gradientTransform="matrix(1 0 0 -1 -227.5 50)" gradientUnits="userSpaceOnUse">
					<stop  offset="0" style="stop-color:#568EB6"/>
					<stop  offset="1" style="stop-color:#568EB6;stop-opacity:0"/>
				</radialGradient>
				<path class="st9" d="M178.8,170.8c-30.3,0-55,24.7-55,55c0,20.7,11.5,38.8,28.5,48.2v-7c-13.5-8.7-22.5-23.9-22.5-41.2
					c0-27,22-49,49-49c27,0,49,22,49,49c0,17.3-9,32.5-22.5,41.2v7c17-9.4,28.5-27.5,28.5-48.2C233.8,195.5,209.1,170.8,178.8,170.8
					z"/>
				
					<radialGradient id="SVGID_11_" cx="406.9883" cy="-173.1895" r="196.3338" gradientTransform="matrix(1 0 0 -1 -227.5 50)" gradientUnits="userSpaceOnUse">
					<stop  offset="0" style="stop-color:#568EB6"/>
					<stop  offset="1" style="stop-color:#568EB6;stop-opacity:0"/>
				</radialGradient>
				<path class="st10" d="M178.8,141.9c-46.3,0-83.9,37.6-83.9,83.9c0,37,24.1,68.5,57.4,79.6v-6.3c-30-10.9-51.4-39.6-51.4-73.3
					c0-43,35-77.9,77.9-77.9s77.9,35,77.9,77.9c0,33.7-21.5,62.4-51.4,73.3v6.3c33.3-11.1,57.4-42.6,57.4-79.6
					C262.7,179.6,225,141.9,178.8,141.9z"/>
				
					<radialGradient id="SVGID_12_" cx="406.9873" cy="-173.7661" r="197.5162" gradientTransform="matrix(1 0 0 -1 -227.5 50)" gradientUnits="userSpaceOnUse">
					<stop  offset="0" style="stop-color:#568EB6"/>
					<stop  offset="1" style="stop-color:#568EB6;stop-opacity:0"/>
				</radialGradient>
				<path class="st11" d="M178.8,112.8c-62.3,0-113,50.7-113,113c0,53.2,37,97.9,86.5,109.9v-6.2c-46.2-11.8-80.5-53.8-80.5-103.7
					c0-59,48-107,107-107c59,0,107,48,107,107c0,49.9-34.3,91.9-80.5,103.7v6.2c49.6-12,86.5-56.7,86.5-109.9
					C291.8,163.5,241.1,112.8,178.8,112.8z"/>
				
					<radialGradient id="SVGID_13_" cx="406.9873" cy="-174.0894" r="198.0295" gradientTransform="matrix(1 0 0 -1 -227.5 50)" gradientUnits="userSpaceOnUse">
					<stop  offset="0" style="stop-color:#568EB6"/>
					<stop  offset="1" style="stop-color:#568EB6;stop-opacity:0"/>
				</radialGradient>
				<path class="st12" d="M178.8,84.1C100.6,84.1,37,147.7,37,225.8c0,69.1,49.7,126.8,115.2,139.3V359C90,346.6,43,291.6,43,225.8
					C43,151,103.9,90.1,178.8,90.1S314.5,151,314.5,225.8c0,65.8-47,120.8-109.2,133.1v6.1c65.5-12.4,115.2-70.1,115.2-139.3
					C320.5,147.7,256.9,84.1,178.8,84.1z"/>
				
					<radialGradient id="SVGID_14_" cx="406.9883" cy="-174.3057" r="198.3063" gradientTransform="matrix(1 0 0 -1 -227.5 50)" gradientUnits="userSpaceOnUse">
					<stop  offset="0" style="stop-color:#568EB6"/>
					<stop  offset="1" style="stop-color:#568EB6;stop-opacity:0"/>
				</radialGradient>
				<path class="st13" d="M178.8,55.2C84.7,55.2,8.1,131.7,8.1,225.8c0,85.1,62.6,155.8,144.2,168.6v-6.1
					C74,375.6,14.1,307.6,14.1,225.8C14.1,135,88,61.2,178.8,61.2S343.4,135,343.4,225.8c0,81.8-59.9,149.8-138.2,162.5v6.1
					c81.6-12.8,144.2-83.5,144.2-168.6C349.4,131.7,272.8,55.2,178.8,55.2z"/>
			</g>
		</g>
	</g>
	<g>
		<path d="M-1.4,442.9v11.2h-7v-11.2H-1.4z M-1.4,464.8v57.1h-7v-57.1H-1.4z"/>
		<path d="M46.7,442.9c3.3,0,6.5,0.3,9.6,0.9c3.1,0.6,5.8,1.7,8.1,3.2c2.3,1.5,4.2,3.5,5.6,6c1.4,2.5,2.1,5.6,2.1,9.2
			c0,2.1-0.3,4.1-1,6c-0.7,2-1.6,3.7-2.8,5.3c-1.2,1.6-2.7,2.9-4.3,4c-1.7,1.1-3.5,1.9-5.6,2.3v0.2c5.1,0.7,9.1,2.7,12.2,6.3
			c3,3.5,4.5,7.8,4.5,13c0,1.3-0.1,2.7-0.3,4.3c-0.2,1.6-0.7,3.2-1.3,4.9c-0.7,1.7-1.6,3.3-2.9,4.9c-1.3,1.6-2.9,3-5,4.3
			s-4.7,2.2-7.7,3c-3.1,0.8-6.7,1.2-11,1.2H13.3v-79H46.7z M46.7,477.5c3,0,5.6-0.3,7.9-1.1c2.2-0.7,4.1-1.7,5.5-2.9
			c1.5-1.2,2.6-2.6,3.3-4.3c0.7-1.6,1.1-3.4,1.1-5.2c0-9.9-5.9-14.8-17.8-14.8H20.9v28.2H46.7z M46.7,515.5c2.8,0,5.5-0.2,8-0.7
			c2.5-0.5,4.7-1.3,6.6-2.6c1.9-1.3,3.4-2.9,4.5-5c1.1-2.1,1.7-4.7,1.7-7.9c0-5.1-1.8-8.9-5.4-11.5c-3.6-2.5-8.7-3.8-15.4-3.8H20.9
			v31.5H46.7z"/>
		<path d="M90.9,503c0.7,2.7,1.8,5.1,3.4,7.2c1.5,2.1,3.5,3.9,5.9,5.3c2.4,1.4,5.2,2.1,8.5,2.1c5.1,0,9.1-1.3,12-4
			c2.9-2.7,4.9-6.2,6-10.6h7c-1.5,6.5-4.2,11.5-8.1,15c-3.9,3.5-9.5,5.3-16.8,5.3c-4.5,0-8.4-0.8-11.7-2.4c-3.3-1.6-6-3.8-8-6.5
			c-2.1-2.8-3.6-6-4.6-9.6c-1-3.7-1.5-7.5-1.5-11.6c0-3.8,0.5-7.5,1.5-11.1c1-3.6,2.5-6.8,4.6-9.7c2.1-2.8,4.7-5.1,8-6.9
			c3.3-1.7,7.2-2.6,11.7-2.6c4.6,0,8.5,0.9,11.7,2.8c3.2,1.8,5.9,4.3,7.9,7.2c2,3,3.5,6.4,4.4,10.3s1.3,7.8,1.1,11.8H89.9
			C89.9,497.7,90.2,500.3,90.9,503z M125.5,481.7c-0.8-2.4-2-4.6-3.6-6.5c-1.5-1.9-3.4-3.4-5.6-4.5c-2.2-1.1-4.7-1.7-7.5-1.7
			c-2.9,0-5.4,0.6-7.6,1.7c-2.2,1.1-4.1,2.7-5.6,4.5c-1.5,1.9-2.8,4.1-3.7,6.5c-0.9,2.5-1.5,5-1.8,7.6h37
			C126.8,486.7,126.3,484.1,125.5,481.7z"/>
		<path d="M144.7,473.6c1.2-2.4,2.8-4.4,4.8-6c2-1.5,4.4-2.7,7.1-3.4c2.7-0.7,5.8-1.1,9.1-1.1c2.5,0,5,0.2,7.5,0.7
			c2.5,0.5,4.8,1.4,6.8,2.7c2,1.3,3.6,3.2,4.9,5.6c1.3,2.4,1.9,5.5,1.9,9.3v30.3c0,2.8,1.4,4.2,4.1,4.2c0.8,0,1.5-0.1,2.2-0.4v5.9
			c-0.8,0.1-1.5,0.3-2.2,0.3c-0.6,0.1-1.4,0.1-2.4,0.1c-1.8,0-3.2-0.2-4.3-0.7c-1.1-0.5-1.9-1.2-2.5-2c-0.6-0.9-1-1.9-1.2-3.2
			c-0.2-1.2-0.3-2.6-0.3-4h-0.2c-1.3,1.8-2.5,3.5-3.8,4.9c-1.3,1.4-2.7,2.6-4.3,3.6c-1.6,1-3.4,1.7-5.4,2.2c-2,0.5-4.4,0.8-7.2,0.8
			c-2.7,0-5.1-0.3-7.5-0.9c-2.3-0.6-4.4-1.6-6.1-3c-1.7-1.4-3.1-3.1-4.1-5.2c-1-2.1-1.5-4.6-1.5-7.5c0-4,0.9-7.1,2.7-9.3
			c1.8-2.2,4.1-4,7-5.1c2.9-1.2,6.2-2,9.8-2.5c3.7-0.5,7.4-0.9,11.1-1.4c1.5-0.1,2.8-0.3,3.9-0.6s2-0.6,2.8-1.2
			c0.7-0.6,1.3-1.3,1.7-2.3c0.4-1,0.6-2.2,0.6-3.8c0-2.4-0.4-4.3-1.2-5.8c-0.8-1.5-1.8-2.7-3.2-3.6c-1.4-0.9-3-1.5-4.8-1.8
			c-1.8-0.3-3.7-0.5-5.8-0.5c-4.4,0-8,1.1-10.8,3.2c-2.8,2.1-4.3,5.5-4.4,10.1h-7C142.8,478.9,143.5,476.1,144.7,473.6z
			 M179.5,490.7c-0.4,0.8-1.3,1.4-2.5,1.8c-1.3,0.4-2.4,0.6-3.3,0.8c-3,0.5-6,1-9.1,1.4c-3.1,0.4-6,1-8.6,1.8
			c-2.6,0.8-4.7,2-6.4,3.5c-1.7,1.5-2.5,3.7-2.5,6.5c0,1.8,0.3,3.3,1.1,4.7c0.7,1.4,1.6,2.5,2.8,3.5c1.2,1,2.5,1.8,4.1,2.3
			c1.5,0.5,3.1,0.8,4.8,0.8c2.7,0,5.2-0.4,7.6-1.2c2.4-0.8,4.6-2,6.4-3.5c1.8-1.5,3.2-3.4,4.3-5.6c1.1-2.2,1.6-4.7,1.6-7.5v-9.1
			H179.5z"/>
		<path d="M235.6,472.6c-2.6-2.4-6.2-3.7-10.8-3.7c-3.3,0-6.2,0.7-8.7,2.1c-2.5,1.4-4.6,3.2-6.3,5.5c-1.7,2.3-2.9,4.9-3.8,7.8
			c-0.8,2.9-1.3,5.9-1.3,8.9c0,3,0.4,6,1.3,8.9c0.8,2.9,2.1,5.5,3.8,7.8c1.7,2.3,3.7,4.1,6.3,5.5c2.5,1.4,5.4,2.1,8.7,2.1
			c2.1,0,4.2-0.4,6.1-1.2c1.9-0.8,3.6-1.9,5.1-3.4c1.5-1.4,2.7-3.2,3.7-5.1c1-2,1.5-4.2,1.8-6.5h7c-1,6.9-3.5,12.3-7.6,16.2
			c-4.1,3.9-9.4,5.8-15.9,5.8c-4.4,0-8.2-0.8-11.6-2.4c-3.4-1.6-6.2-3.7-8.5-6.5c-2.3-2.7-4-5.9-5.2-9.6c-1.2-3.7-1.8-7.5-1.8-11.7
			c0-4.1,0.6-8,1.8-11.7c1.2-3.7,2.9-6.8,5.2-9.6c2.3-2.7,5.1-4.9,8.5-6.5c3.4-1.6,7.2-2.4,11.6-2.4c6.1,0,11.3,1.6,15.5,4.9
			c4.2,3.2,6.8,8.2,7.6,14.7h-7C240,478.4,238.2,475.1,235.6,472.6z"/>
		<path d="M293.8,465.6c3.4,1.6,6.2,3.8,8.5,6.5c2.3,2.7,4,5.9,5.2,9.6c1.2,3.7,1.8,7.5,1.8,11.7c0,4.1-0.6,8-1.8,11.7
			c-1.2,3.7-2.9,6.8-5.2,9.6c-2.3,2.7-5.1,4.9-8.5,6.5c-3.4,1.6-7.2,2.4-11.6,2.4c-4.4,0-8.2-0.8-11.6-2.4c-3.4-1.6-6.2-3.7-8.5-6.5
			c-2.3-2.7-4-5.9-5.2-9.6c-1.2-3.7-1.8-7.5-1.8-11.7c0-4.1,0.6-8,1.8-11.7c1.2-3.7,2.9-6.8,5.2-9.6c2.3-2.7,5.1-4.9,8.5-6.5
			c3.4-1.6,7.2-2.4,11.6-2.4C286.6,463.1,290.4,463.9,293.8,465.6z M273.5,471.1c-2.5,1.4-4.6,3.2-6.3,5.5c-1.7,2.3-2.9,4.9-3.8,7.8
			c-0.8,2.9-1.3,5.9-1.3,8.9c0,3,0.4,6,1.3,8.9c0.8,2.9,2.1,5.5,3.8,7.8c1.7,2.3,3.7,4.1,6.3,5.5c2.5,1.4,5.4,2.1,8.7,2.1
			s6.2-0.7,8.7-2.1c2.5-1.4,4.6-3.2,6.3-5.5c1.7-2.3,2.9-4.9,3.8-7.8c0.8-2.9,1.3-5.9,1.3-8.9c0-3-0.4-6-1.3-8.9
			c-0.8-2.9-2.1-5.5-3.8-7.8c-1.7-2.3-3.7-4.1-6.3-5.5c-2.5-1.4-5.4-2.1-8.7-2.1S276,469.7,273.5,471.1z"/>
		<path d="M326.5,464.8v9.8h0.2c1.3-3.5,3.7-6.3,7.1-8.4c3.4-2.1,7.1-3.2,11.2-3.2c4,0,7.3,0.5,10,1.5c2.7,1,4.8,2.5,6.5,4.4
			c1.6,1.9,2.8,4.2,3.4,6.9c0.7,2.7,1,5.8,1,9.2v36.7h-7v-35.6c0-2.4-0.2-4.7-0.7-6.8c-0.4-2.1-1.2-3.9-2.3-5.5
			c-1.1-1.5-2.6-2.8-4.5-3.7c-1.9-0.9-4.2-1.3-7-1.3c-2.8,0-5.3,0.5-7.5,1.5c-2.2,1-4,2.4-5.5,4.1c-1.5,1.7-2.7,3.8-3.5,6.2
			c-0.8,2.4-1.3,5-1.4,7.8v33.3h-7v-57.1H326.5z"/>
	</g>
</g>
</svg>
